<svg id="visual" viewBox="0 0 900 600" width="900" height="600" xmlns="http://www.w3.org/2000/svg" xmlns:xlink="http://www.w3.org/1999/xlink" version="1.1"><g transform="translate(438.33570504192346 282.74289044718194)"><path d="M134.1 -206.1C188.3 -201.1 256.5 -194.3 279.2 -159.6C301.8 -125 278.9 -62.5 271.8 -4.1C264.8 54.3 273.5 108.7 252.4 145.9C231.2 183.1 180.1 203.3 133.1 207.3C86 211.3 43 199.1 -9.7 215.9C-62.3 232.6 -124.7 278.3 -175.5 276.4C-226.3 274.6 -265.6 225.3 -265.6 171.3C-265.7 117.3 -226.6 58.7 -225 0.9C-223.4 -56.8 -259.4 -113.7 -253.4 -157.4C-247.4 -201.1 -199.4 -231.8 -150.2 -239.7C-101 -247.6 -50.5 -232.8 -5.3 -223.7C40 -214.6 80 -211.2 134.1 -206.1" fill="#a0c978"></path></g></svg>